# xmcd CD database file
#
# Track frame offsets:
#	150
#	9120
#	18650
#	27070
#	39150
#	50447
#	59742
#	67452
#	77987
#	88832
#	99915
#	109022
#	118822
#	129540
#
# Disc length: 1913 seconds
#
# Revision: 0
# Processed by: cddbd v1.5.1PL0 Copyright (c) Steve Scherf et al.
# Submitted via: CDex 1.51
#
DISCID=b907770e
DTITLE=Various Artist - Love Letters From Lennon and McCartney
DYEAR=1993
DGENRE=Pop
TTITLE0=From A Window/Billy J.Kramer And The Dakotas
TTITLE1=I'll Keep You Satisfied/Billy J.Kramer And The Dakotas
TTITLE2=Hello Little Girl/The Fourmost
TTITLE3=A World Without Love/Peter And Gordon
TTITLE4=Nobody I Know/Peter And Gordon
TTITLE5=Love Of The Loved/Cilla Black
TTITLE6=I'll Be On My Way/Billy J.Kramer And The Dakotas
TTITLE7=Bad To Me/Billy J.Kramer And The Dakotas
TTITLE8=Step Inside Love/Cilla Black
TTITLE9=Woman/Peter And Gordon
TTITLE10=I Don't Want To See You Again/Peter And Gordon
TTITLE11=I'm In Love/The Fourmost
TTITLE12=It's For You/Cilla Black
TTITLE13=Cat Call/The Chris Barber Band
EXTD=YEAR: 1993
EXTT0=
EXTT1=
EXTT2=
EXTT3=
EXTT4=
EXTT5=
EXTT6=
EXTT7=
EXTT8=
EXTT9=
EXTT10=
EXTT11=
EXTT12=
EXTT13=
PLAYORDER=
